<svg width="491" height="491" viewBox="0 0 491 491" fill="none" xmlns="http://www.w3.org/2000/svg">
<path d="M490.013 269.388C485.416 223.149 464.759 179.558 431.844 146.642C403.716 118.515 369.287 100.44 333.061 92.4024V66.994C347.857 63.313 358.855 49.9198 358.855 34.0005C358.855 15.2522 343.603 0 324.854 0H252.853C234.105 0 218.853 15.2522 218.853 34.0005C218.853 49.9188 229.851 63.312 244.646 66.994V92.4734C208.531 100.545 174.216 118.595 146.168 146.643C140.03 152.781 134.369 159.22 129.188 165.913C128.937 165.894 128.686 165.875 128.43 165.875H57.1682C51.6461 165.875 47.1681 170.352 47.1681 175.875C47.1681 181.398 51.6461 185.875 57.1682 185.875H115.581C108.249 198.15 102.337 211.041 97.8369 224.312H-10.9998C-16.5219 224.312 -21 228.789 -21 234.312C-21 239.835 -16.5219 244.312 -10.9998 244.312H92.1858C89.3037 256.963 87.6497 269.838 87.2227 282.749H43.001C37.4789 282.749 33.0008 287.226 33.0008 292.75C33.0008 298.273 37.4789 302.75 43.001 302.75H87.5417C88.3857 315.694 90.4667 328.57 93.7858 341.187H29.0008C23.4787 341.187 19.0006 345.664 19.0006 351.187C19.0006 356.711 23.4787 361.188 29.0008 361.188H100.168C109.978 387.139 125.309 411.462 146.168 432.321C179.114 465.267 222.751 485.93 269.038 490.503C275.644 491.155 282.255 491.478 288.857 491.478C327.879 491.478 366.406 480.185 399.097 458.896C403.725 455.882 405.034 449.687 402.02 445.059C399.006 440.431 392.81 439.122 388.182 442.136C316.624 488.734 220.79 478.658 160.31 418.179C89.3467 347.215 89.3467 231.751 160.31 160.787C231.272 89.8244 346.737 89.8244 417.701 160.787C478.101 221.187 488.231 316.94 441.787 388.463C438.779 393.095 440.096 399.289 444.727 402.296C449.361 405.304 455.553 403.987 458.56 399.355C483.375 361.14 494.545 314.984 490.013 269.388ZM238.853 34.0015C238.853 26.2814 245.133 20.0013 252.853 20.0013H324.854C332.575 20.0013 338.855 26.2814 338.855 34.0015C338.855 41.7217 332.575 48.0017 324.854 48.0017H323.06H254.646H252.853C245.133 48.0017 238.853 41.7207 238.853 34.0015ZM264.646 89.0354V68.0021H313.06V88.9994C296.984 87.0874 280.72 87.0994 264.646 89.0354Z" fill="#9052FF"/>
<path d="M424.777 415.245C422.137 415.245 419.567 416.315 417.708 418.175C415.838 420.035 414.777 422.615 414.777 425.245C414.777 427.875 415.838 430.455 417.708 432.315C419.567 434.185 422.138 435.245 424.777 435.245C427.407 435.245 429.977 434.185 431.847 432.315C433.707 430.455 434.777 427.875 434.777 425.245C434.777 422.615 433.708 420.035 431.847 418.175C429.977 416.315 427.406 415.245 424.777 415.245Z" fill="#9052FF"/>
<path d="M289.006 134.349C203.467 134.349 133.874 203.94 133.874 289.481C133.874 375.021 203.467 444.612 289.006 444.612C374.545 444.612 444.137 375.021 444.137 289.481C444.137 203.94 374.545 134.349 289.006 134.349ZM289.006 424.612C214.494 424.612 153.875 363.992 153.875 289.481C153.875 214.969 214.494 154.349 289.006 154.349C363.518 154.349 424.137 214.969 424.137 289.481C424.137 363.992 363.518 424.612 289.006 424.612Z" fill="#9052FF"/>
<path d="M352.263 212.082L302.732 261.611C298.59 259.563 293.931 258.406 289.006 258.406C284.08 258.406 279.422 259.563 275.28 261.611L253.112 239.444C249.206 235.539 242.876 235.539 238.969 239.444C235.064 243.349 235.064 249.681 238.969 253.586L261.136 275.754C259.087 279.896 257.931 284.555 257.931 289.48C257.931 306.614 271.871 320.554 289.006 320.554C306.141 320.554 320.08 306.614 320.08 289.48C320.08 284.555 318.923 279.896 316.875 275.754L364.952 227.677L366.405 226.224C370.31 222.319 370.31 215.987 366.405 212.082C362.5 208.177 356.17 208.177 352.263 212.082ZM289.006 300.555C282.9 300.555 277.932 295.587 277.932 289.481C277.932 283.375 282.9 278.407 289.006 278.407C295.112 278.407 300.08 283.375 300.08 289.481C300.08 295.587 295.112 300.555 289.006 300.555Z" fill="#9052FF"/>
<path d="M395.926 279.603H386.661C381.139 279.603 376.661 284.08 376.661 289.603C376.661 295.126 381.139 299.603 386.661 299.603H395.926C401.448 299.603 405.926 295.126 405.926 289.603C405.926 284.08 401.448 279.603 395.926 279.603Z" fill="#9052FF"/>
<path d="M191.349 279.358H182.085C176.563 279.358 172.085 283.835 172.085 289.358C172.085 294.881 176.563 299.358 182.085 299.358H191.349C196.871 299.358 201.349 294.881 201.349 289.358C201.349 283.835 196.871 279.358 191.349 279.358Z" fill="#9052FF"/>
<path d="M289.128 201.824C294.65 201.824 299.128 197.347 299.128 191.824V182.56C299.128 177.037 294.65 172.56 289.128 172.56C283.606 172.56 279.128 177.037 279.128 182.56V191.824C279.128 197.347 283.606 201.824 289.128 201.824Z" fill="#9052FF"/>
<path d="M288.884 377.137C283.362 377.137 278.884 381.614 278.884 387.137V396.401C278.884 401.924 283.362 406.401 288.884 406.401C294.406 406.401 298.884 401.924 298.884 396.401V387.137C298.884 381.614 294.406 377.137 288.884 377.137Z" fill="#9052FF"/>
</svg>
