<svg width="479" height="512" viewBox="0 0 479 512" fill="none" xmlns="http://www.w3.org/2000/svg">
<path d="M159 145H79C70.716 145 64 151.716 64 160C64 168.284 70.716 175 79 175H159C167.284 175 174 168.284 174 160C174 151.716 167.284 145 159 145Z" fill="#9052FF"/>
<path d="M159 225H79C70.716 225 64 231.716 64 240C64 248.284 70.716 255 79 255H159C167.284 255 174 248.284 174 240C174 231.716 167.284 225 159 225Z" fill="#9052FF"/>
<path d="M159 305H79C70.716 305 64 311.716 64 320C64 328.284 70.716 335 79 335H159C167.284 335 174 328.284 174 320C174 311.716 167.284 305 159 305Z" fill="#9052FF"/>
<path d="M374 274.928V137.98C374 118.21 366.377 99.559 352.535 85.453L291.673 22.514C291.644 22.484 291.614 22.453 291.585 22.423C277.572 8.173 258.073 0 238.09 0H45C20.187 0 0 20.187 0 45V434C0 458.813 20.187 479 45 479H276.833C298.209 499.433 327.164 512 359 512C425.168 512 479 458.617 479 393C479 332.42 433.115 282.271 374 274.928ZM30 434V45C30 36.729 36.729 30 45 30H238.09C250.064 30 261.748 34.891 270.156 43.418L331.007 106.347C331.036 106.377 331.065 106.407 331.093 106.436C339.416 114.903 344 126.105 344 137.981V274.943C285.438 282.341 240 332.464 240 393.001C240 413.234 245.082 432.301 254.027 449.001H45C36.729 449 30 442.271 30 434ZM359 482C309.925 482 270 442.075 270 393C270 343.925 309.925 304 359 304C408.626 304 449 343.925 449 393C449 442.075 408.626 482 359 482Z" fill="#9052FF"/>
<path d="M393.603 357.477C387.24 352.176 377.781 353.035 372.477 359.398L347.16 389.779L341.417 378.293C337.712 370.883 328.702 367.878 321.292 371.585C313.882 375.289 310.879 384.3 314.584 391.709L330.584 423.709C332.848 428.237 337.243 431.317 342.271 431.901C342.85 431.967 343.427 432.001 344.002 432.001C348.423 432.001 352.656 430.045 355.524 426.604L395.524 378.604C400.827 372.238 399.967 362.78 393.603 357.477V357.477Z" fill="#9052FF"/>
<path d="M239 175H255C263.284 175 270 168.284 270 160C270 151.716 263.284 145 255 145H239C230.716 145 224 151.716 224 160C224 168.284 230.716 175 239 175Z" fill="#9052FF"/>
<path d="M270 240C270 231.716 263.284 225 255 225H239C230.716 225 224 231.716 224 240C224 248.284 230.716 255 239 255H255C263.284 255 270 248.284 270 240Z" fill="#9052FF"/>
</svg>
