<svg width="912" height="795" viewBox="0 0 912 795" fill="none" xmlns="http://www.w3.org/2000/svg">
<path d="M861.528 281.642L908.622 229.76C909.99 228.546 910.843 226.854 911.006 225.032C911.169 223.21 910.63 221.394 909.499 219.956C908.368 218.518 906.73 217.566 904.921 217.295C903.112 217.024 901.267 217.454 899.764 218.498C892.566 223.486 881.33 234.548 878.352 233.532C878.033 233.424 877.531 233.133 877.12 232.122L897.986 208.062C898.665 207.363 899.195 206.534 899.547 205.626C899.899 204.717 900.065 203.747 900.034 202.773C900.004 201.8 899.778 200.842 899.37 199.957C898.962 199.072 898.381 198.279 897.66 197.623C896.939 196.968 896.094 196.464 895.174 196.141C894.255 195.819 893.28 195.684 892.308 195.746C891.336 195.808 890.386 196.065 889.515 196.501C888.644 196.937 887.869 197.544 887.237 198.285L865.43 221.346C865.275 221.523 865.059 221.636 864.824 221.661C864.589 221.687 864.354 221.623 864.164 221.483C863.974 221.343 863.844 221.136 863.799 220.905C863.755 220.673 863.799 220.433 863.923 220.232L879.244 194.67C880.284 192.937 880.625 190.872 880.197 188.897C879.769 186.921 878.605 185.182 876.941 184.035C875.277 182.887 873.238 182.416 871.24 182.718C869.241 183.021 867.432 184.073 866.182 185.661C859.296 194.4 851.336 209.181 844.451 217.919L845.305 187.995C845.289 186.199 844.593 184.475 843.356 183.171C842.119 181.867 840.435 181.08 838.641 180.97H838.506C836.628 180.853 834.78 181.486 833.369 182.73C831.957 183.975 831.097 185.728 830.978 187.606C830.091 201.333 822.655 233.689 821.666 247.416C833.918 259.706 849.271 269.266 861.528 281.642Z" fill="#E58E52"/>
<path d="M338.533 633.805L288.537 680.218C262.207 700.716 238.817 726.501 212.476 746.999C207.47 750.895 204.036 756.465 202.803 762.688C201.57 768.91 202.621 775.369 205.764 780.879L205.986 781.268C208.963 786.49 213.634 790.539 219.226 792.744C224.818 794.95 230.996 795.18 236.736 793.396C260.861 785.889 282.052 773.102 306.177 765.601L306.436 765.736C314.171 769.799 322.951 771.432 331.629 770.424C340.307 769.415 348.479 765.811 355.075 760.083C362.723 753.447 368.981 747.777 384.216 735.796C362.096 707.569 360.642 662.032 338.533 633.805Z" fill="#DA4E22"/>
<path d="M258.078 412.967L265.871 307.766L433.406 300.616C452.826 299.791 472.092 304.391 489.043 313.903C505.995 323.414 519.961 337.46 529.376 354.465L580.777 447.328L599.514 430.926L664.485 454.581L671.992 493.606C675.829 513.564 676.791 538.548 665.096 555.167C660.6 561.448 654.715 566.606 647.899 570.239C643.882 572.362 639.589 573.917 635.145 574.86L524.512 590.77L383.999 735.607L306.717 658.865L425.408 536.332C445.892 515.185 472.659 501.219 501.722 496.513L513.704 494.573L444.528 402.159L258.078 412.967Z" fill="#E7D63A"/>
<path d="M497.961 161.612C487.234 161.612 477.965 156.85 474.28 149.003L470.291 140.497C470.074 140.029 469.942 139.525 469.902 139.011L463.984 66.9707C463.926 65.8478 464.308 64.7465 465.048 63.9004C465.789 63.0542 466.83 62.5298 467.951 62.4384C469.071 62.347 470.183 62.6958 471.051 63.4108C471.919 64.1258 472.474 65.1507 472.599 66.2682L478.43 137.53L482.089 145.334C484.791 151.084 493.487 154.121 502.782 152.554L519.33 149.76C529.734 148.003 538.348 141.113 539.37 133.682L540.45 125.84L532.16 55.0433C532.034 53.9086 532.362 52.77 533.072 51.8762C533.783 50.9823 534.818 50.4058 535.952 50.2723C537.086 50.1389 538.226 50.4594 539.125 51.1639C540.023 51.8684 540.607 52.8997 540.748 54.0327L549.103 125.37C549.148 125.729 549.148 126.092 549.103 126.451L547.952 134.833C546.411 146.009 534.981 155.861 520.789 158.261L504.241 161.05C502.167 161.413 500.067 161.601 497.961 161.612V161.612Z" fill="black"/>
<path d="M557.122 2.45767L426.002 22.077C416.931 23.4344 410.677 31.8883 412.035 40.9594L424.52 124.398C425.877 133.469 434.331 139.722 443.402 138.365L574.522 118.745C583.593 117.388 589.846 108.934 588.489 99.8631L576.004 16.4248C574.647 7.35365 566.193 1.10036 557.122 2.45767Z" fill="#DA4E22"/>
<path d="M0.604492 533.933C26.5129 536.306 40.3318 545.396 48.1627 553.303C60.5171 565.765 64.8514 582.173 81.2644 587.031C86.5796 588.526 92.1776 588.711 97.5801 587.572C97.5801 587.572 85.4095 598.58 89.9275 610.048C94.4456 621.516 130.347 658.471 130.347 658.471C130.347 658.471 126.51 651.986 123.207 644.668C119.273 635.967 116.571 629.163 119.311 626.186C120.008 625.429 121.97 623.937 127.742 625.213C129.52 629.709 135.383 642.788 149.862 651.494C157.735 656.2 166.688 658.797 175.857 659.033L138.567 618.101L149.111 582.264L40.2832 531.664L0.604492 533.933Z" fill="black"/>
<path d="M211.84 560.631L211.877 576.061L179.376 574.623C177.311 575.985 174.209 578.06 170.507 580.676C157.575 589.82 151.111 594.387 148.668 599.272C143.372 609.865 148.717 622.279 150.03 625.343C154.667 636.103 162.925 641.718 173.269 648.771C185.083 656.802 196.464 665.47 208.478 673.198C208.597 673.274 208.964 673.512 208.921 673.636C208.662 674.355 194.329 669.94 187.877 667.74C169.778 661.557 153.71 656.077 141.621 641.756C137.66 637.065 126.11 623.381 129.191 609.222C131.666 597.873 142.853 589.496 142.161 588.826C141.772 588.447 138.378 591.285 135.8 593.538C132.217 596.181 126.554 601.218 123.824 609.141C120.041 620.165 119.566 633.358 129.391 643.226C136.303 650.17 146.393 672.409 146.393 672.409C136.562 667.843 120.766 658.563 109.298 640.886C103.05 631.255 93.7006 616.847 98.2726 600.791C100.975 591.274 107.46 585.118 111.357 582.011C103.607 582.643 92.4089 582.373 81.1895 576.963C61.2961 567.381 63.6362 551.39 43.4834 542.375C33.8474 538.052 0 534.485 0 534.485C3.439 531.45 7.38476 529.042 11.6572 527.373C25.2491 522.114 38.6789 526.119 52.3249 531.334C95.8245 547.974 94.0572 558.896 112.07 559.242C135.595 559.675 147.609 541.192 163.179 549.514C163.179 549.514 164.022 549.968 180.727 562.89L211.84 560.631Z" fill="#FDF93F"/>
<path d="M211.806 560.679L203.402 566.381L211.709 575.692L211.806 560.679Z" fill="black"/>
<path d="M181.727 569.343C181.549 569.349 181.372 569.321 181.206 569.259C181.04 569.197 180.887 569.102 180.757 568.982C180.495 568.737 180.34 568.399 180.327 568.04C180.314 567.682 180.444 567.333 180.688 567.071C180.933 566.808 181.271 566.654 181.629 566.641L205.252 564.928C205.61 564.901 205.964 565.018 206.237 565.252C206.509 565.487 206.676 565.82 206.703 566.179C206.729 566.537 206.613 566.891 206.378 567.163C206.143 567.435 205.81 567.603 205.452 567.63L181.824 569.348L181.727 569.343Z" fill="black"/>
<path d="M168.193 553.248C165.415 554.421 158.346 556.95 149.948 554.832C146.939 554.067 144.079 552.801 141.49 551.087C142.636 550.287 150.164 545.201 159.179 547.736C162.623 548.732 165.737 550.636 168.193 553.248V553.248Z" fill="black"/>
<path d="M145.327 572.196C144.746 573.054 143.995 573.784 143.122 574.342C142.248 574.899 141.27 575.272 140.247 575.438C138.685 575.666 137.091 575.383 135.702 574.633C135.043 574.271 132.703 572.861 132.151 570.018C131.868 568.271 132.254 566.482 133.232 565.008C133.632 564.343 135.037 562.014 137.847 561.457C139.594 561.174 141.383 561.56 142.857 562.538C143.544 562.949 145.851 564.338 146.408 567.148C146.713 568.907 146.326 570.716 145.327 572.196Z" fill="black"/>
<path d="M551.789 189.822L548.833 171.934C549.264 166.791 548.524 161.618 546.671 156.802C544.207 150.526 539.966 145.106 534.468 141.205L520.66 133.406C518.714 132.305 516.51 131.741 514.274 131.773C512.038 131.806 509.851 132.433 507.938 133.59L493.119 142.545C491.952 143.826 486.715 149.841 487.223 158.423C487.731 167.005 493.67 174.571 502.355 177.879L511.543 181.121L510.192 204.9L552.345 195.443L551.789 189.822Z" fill="#E58E52"/>
<path d="M516.072 498.681C515.713 498.688 515.367 498.552 515.108 498.304C514.85 498.056 514.701 497.715 514.694 497.357C514.686 496.998 514.822 496.652 515.07 496.393C515.319 496.135 515.659 495.986 516.018 495.979L594.446 492.866C594.623 492.859 594.8 492.887 594.967 492.949C595.133 493.011 595.286 493.104 595.416 493.225C595.546 493.346 595.651 493.491 595.726 493.652C595.8 493.814 595.841 493.988 595.848 494.165C595.855 494.343 595.826 494.52 595.765 494.686C595.703 494.853 595.609 495.006 595.489 495.136C595.368 495.266 595.223 495.371 595.061 495.445C594.9 495.52 594.726 495.561 594.548 495.568L516.126 498.681H516.072Z" fill="black"/>
<path d="M269.011 310.053L221.507 283.658L215.654 221.832C214.189 211.126 205.007 203.322 194.885 203.555C185.887 203.766 177.824 210.283 175.521 219.519C175.777 248.324 176.454 277.679 177.553 307.583C178.036 320.463 178.593 333.234 179.223 345.895L214.978 359.135C216.625 359.747 218.023 360.885 218.956 362.374C219.888 363.863 220.302 365.618 220.134 367.366V367.523C220.023 368.66 219.669 369.759 219.095 370.747C218.521 371.735 217.742 372.587 216.809 373.247C215.876 373.906 214.812 374.357 213.69 374.568C212.567 374.78 211.412 374.747 210.304 374.473C197.333 371.257 185.195 368.042 171.663 364.826L168.733 412.79C199.246 411.995 228.587 410.125 259.099 409.331C262.002 375.878 266.093 343.5 269.011 310.053Z" fill="#DA4E22"/>
<path d="M500.733 195.173L567.747 188.147L580.177 308.123L610.982 328.12L670.97 351.174L753.116 338.388L814.726 238.948L873.093 286.506L808.473 389.918C804.297 396.356 798.869 401.888 792.512 406.185C786.155 410.483 778.999 413.458 771.47 414.935L681.239 430.262L665.566 451.176L599.093 425.938L597.471 409.725L537.083 363.983C529.697 358.288 523.548 351.149 519.011 343C514.474 334.852 511.644 325.865 510.694 316.587L500.733 195.173Z" fill="#E7D63A"/>
<path d="M634.762 337.307C636.713 337.966 633.141 416.21 633.141 416.21L670.971 348.656L634.762 337.307Z" fill="white"/>
<path d="M659.945 369.776C659.662 369.775 659.387 369.686 659.158 369.521C658.928 369.357 658.756 369.125 658.664 368.858C657.448 365.275 656.502 362.054 655.556 358.941C654.757 356.238 653.935 353.504 652.946 350.515C649.855 351.877 647.396 352.969 644.942 354.061C642.132 355.309 639.327 356.557 635.571 358.206C635.407 358.291 635.227 358.342 635.042 358.355C634.858 358.368 634.672 358.343 634.498 358.282C634.323 358.22 634.163 358.123 634.027 357.997C633.892 357.871 633.783 357.719 633.709 357.549C633.635 357.38 633.596 357.197 633.596 357.011C633.595 356.826 633.633 356.643 633.706 356.473C633.779 356.303 633.887 356.15 634.022 356.023C634.157 355.896 634.316 355.798 634.49 355.736C638.241 354.082 641.046 352.839 643.851 351.591C646.655 350.342 649.466 349.099 653.216 347.446C653.388 347.37 653.573 347.332 653.761 347.332C653.948 347.332 654.133 347.37 654.305 347.445C654.477 347.521 654.631 347.63 654.758 347.768C654.885 347.906 654.982 348.068 655.043 348.245C656.264 351.834 657.205 355.055 658.151 358.168C659.096 361.281 660.026 364.453 661.231 367.988C661.302 368.191 661.323 368.409 661.292 368.622C661.262 368.836 661.18 369.039 661.055 369.214C660.929 369.389 660.763 369.532 660.571 369.63C660.379 369.728 660.166 369.778 659.95 369.776H659.945Z" fill="black"/>
<path d="M641.247 354.06C641.968 358.023 642.688 361.986 643.409 365.95C640.282 372.82 637.151 379.689 634.016 386.556L633.141 416.21L647.608 390.648L650.31 368.225L658.001 360.545C656.579 356.822 655.098 352.379 653.677 348.656C649.959 350.277 644.965 352.439 641.247 354.06Z" fill="#934A33"/>
<path d="M697.993 319.473C696.942 322.1 695.637 324.618 694.096 326.99C689.038 335.227 685.638 340.766 679.218 344.992C675.387 347.487 671.094 349.189 666.593 349.997C660.869 350.721 655.054 350.082 649.624 348.132C645.711 346.705 638.945 344.252 634.913 337.604C631.827 332.524 631.757 327.417 631.671 321.932C631.671 320.311 631.714 318.797 631.833 317.376C632.02 315.111 632.369 312.863 632.876 310.648C633.022 310.021 633.168 309.437 633.308 308.907L630.973 305.713C630.65 305.282 630.44 304.777 630.361 304.244C630.282 303.71 630.338 303.166 630.522 302.659C630.707 302.153 631.015 301.701 631.418 301.343C631.821 300.985 632.308 300.734 632.832 300.612L636.756 299.644C639.588 294.291 643.422 289.531 648.051 285.625C657.844 277.178 668.723 277.995 672.025 278.238C674.241 278.4 675.219 280.875 677.099 281.21C680.625 281.809 683.99 283.125 686.986 285.077C689.983 287.029 692.546 289.576 694.518 292.559C694.545 292.559 694.755 292.197 694.783 292.197C703.024 304.881 701.316 310.642 697.993 319.473Z" fill="#E58E52"/>
<path d="M638.118 300.558C639.816 303.149 642.049 305.345 644.668 306.999C655.78 313.917 664.74 306.848 666.107 306.167C661.524 302.309 660.833 301.271 655.915 298.52C653.479 297.155 650.712 296.495 647.923 296.614C645.134 296.734 642.433 297.627 640.123 299.196L638.118 300.558Z" fill="white"/>
<path d="M700.316 302.179C699.776 298.568 696.836 292.316 688.859 285.755C686.33 283.674 678.791 277.87 667.96 278.054C663.57 278.15 659.251 279.19 655.298 281.102C669.176 293.624 672.111 298.331 671.511 300.017C671.451 300.19 670.97 301.903 670.111 304.205C669.203 306.643 669.016 309.29 669.571 311.831C673.613 305.886 681.379 302.919 686.162 304.211C695.068 306.626 692.35 317.613 692.188 318.554C691.663 321.17 690.516 323.621 688.845 325.7C687.173 327.78 685.026 329.427 682.584 330.503C681.732 330.881 680.814 331.087 679.882 331.108C681.731 333.005 683.86 335.075 686.216 337.399C686.493 337.673 686.824 337.888 687.186 338.03C687.549 338.173 687.938 338.24 688.327 338.228C688.717 338.216 689.1 338.125 689.454 337.96C689.807 337.795 690.123 337.56 690.383 337.269C695.29 331.724 702.975 320.375 700.316 302.179Z" fill="#934A33"/>
<path d="M676.678 313.377C676.486 313.378 676.295 313.338 676.12 313.26C675.945 313.182 675.788 313.067 675.662 312.923C675.426 312.653 675.306 312.302 675.328 311.944C675.35 311.587 675.513 311.253 675.78 311.015C678.164 308.918 683.984 306.151 688.978 310.734C689.229 310.979 689.375 311.312 689.385 311.662C689.395 312.013 689.268 312.353 689.032 312.612C688.796 312.871 688.468 313.028 688.118 313.05C687.768 313.071 687.423 312.956 687.156 312.728C682.682 308.626 677.775 312.858 677.569 313.041C677.322 313.258 677.006 313.377 676.678 313.377V313.377Z" fill="black"/>
<path d="M683.158 321.634C682.927 321.633 682.699 321.572 682.498 321.458C682.297 321.344 682.128 321.18 682.008 320.983C681.888 320.785 681.82 320.56 681.811 320.329C681.803 320.097 681.853 319.868 681.958 319.662C684.504 314.717 681.861 310.88 681.834 310.842C681.627 310.549 681.545 310.185 681.606 309.831C681.666 309.478 681.865 309.163 682.158 308.956C682.451 308.748 682.815 308.666 683.168 308.727C683.522 308.788 683.837 308.987 684.044 309.28C684.19 309.491 687.649 314.511 684.363 320.899C684.249 321.12 684.076 321.305 683.863 321.435C683.651 321.565 683.407 321.633 683.158 321.634V321.634Z" fill="black"/>
<path d="M643.933 303.557C645.124 303.557 646.089 302.591 646.089 301.4C646.089 300.21 645.124 299.244 643.933 299.244C642.742 299.244 641.776 300.21 641.776 301.4C641.776 302.591 642.742 303.557 643.933 303.557Z" fill="black"/>
<path d="M653.98 296.92C653.647 296.923 653.325 296.802 653.077 296.58L646.398 290.635C646.13 290.396 645.969 290.061 645.948 289.703C645.928 289.346 646.051 288.994 646.29 288.727C646.528 288.46 646.863 288.298 647.221 288.278C647.579 288.258 647.93 288.38 648.197 288.619L654.877 294.564C655.08 294.746 655.223 294.986 655.287 295.251C655.352 295.516 655.334 295.795 655.237 296.05C655.14 296.305 654.968 296.525 654.743 296.68C654.519 296.835 654.253 296.919 653.98 296.92V296.92Z" fill="black"/>
<path d="M649.494 322.964C649.151 322.964 648.821 322.834 648.571 322.6C648.321 322.366 648.17 322.046 648.148 321.704C647.964 319.162 648.765 316.647 650.385 314.679C651.736 313.133 653.544 312.058 655.546 311.609C660.129 310.425 663.988 312.598 665.436 313.587C665.583 313.687 665.708 313.815 665.805 313.964C665.903 314.112 665.97 314.278 666.002 314.453C666.035 314.627 666.033 314.806 665.997 314.98C665.961 315.154 665.89 315.318 665.79 315.465C665.69 315.612 665.562 315.737 665.414 315.834C665.265 315.931 665.099 315.998 664.925 316.031C664.75 316.064 664.571 316.062 664.397 316.026C664.224 315.989 664.059 315.919 663.912 315.819C663.021 315.208 659.827 313.295 656.222 314.225C654.757 314.537 653.431 315.312 652.439 316.435C651.271 317.854 650.691 319.666 650.818 321.499C650.83 321.676 650.808 321.853 650.751 322.021C650.695 322.189 650.606 322.345 650.489 322.478C650.373 322.612 650.231 322.721 650.072 322.8C649.914 322.878 649.741 322.925 649.564 322.937L649.494 322.964Z" fill="black"/>
<path d="M636.999 314.717C636.459 316.56 634.475 317.105 633.87 317.268C633.21 317.436 632.522 317.468 631.849 317.359C632.036 315.095 632.385 312.846 632.892 310.631C633.335 310.503 633.8 310.464 634.258 310.518C634.717 310.572 635.16 310.717 635.561 310.944C636.17 311.34 636.636 311.919 636.895 312.596C637.153 313.274 637.19 314.017 636.999 314.717V314.717Z" fill="black"/>
<path d="M702.602 288.776C720.534 288.776 735.071 274.239 735.071 256.307C735.071 238.374 720.534 223.837 702.602 223.837C684.67 223.837 670.133 238.374 670.133 256.307C670.133 274.239 684.67 288.776 702.602 288.776Z" fill="#DA4E22"/>
<path d="M734.877 234.419C752.809 234.419 767.346 219.882 767.346 201.95C767.346 184.017 752.809 169.48 734.877 169.48C716.944 169.48 702.407 184.017 702.407 201.95C702.407 219.882 716.944 234.419 734.877 234.419Z" fill="#DA4E22"/>
<path d="M576.712 27.4518L413.759 51.8345L419.117 87.6449L582.071 63.2623L576.712 27.4518Z" fill="#FFE715"/>
<path d="M598.552 100.954L605.448 46.7642L443.14 71.5053L443.21 138.276L583.723 118.129C587.85 117.534 591.623 115.469 594.348 112.313C597.073 109.157 598.566 105.123 598.552 100.954Z" fill="#DA4E22"/>
<path d="M532.142 49.9023L507.021 53.6611L509.341 69.1612L534.462 65.4024L532.142 49.9023Z" fill="#BEFF81"/>
<path d="M598.552 422.155L669.89 443.232L665.566 463.228L592.607 440.53L598.552 422.155Z" fill="#934A33"/>
<path d="M633.582 428.845L624.528 426.284C619.847 424.96 614.979 427.682 613.655 432.364L611.094 441.418C609.771 446.099 612.493 450.968 617.174 452.292L626.228 454.852C630.91 456.176 635.778 453.454 637.102 448.772L639.662 439.718C640.986 435.037 638.264 430.168 633.582 428.845Z" fill="#BEFF81"/>
<path d="M632.352 437.191L620.589 433.865L617.787 443.772L629.551 447.098L632.352 437.191Z" fill="black"/>
<path d="M444.686 403.537C444.427 403.536 444.174 403.461 443.956 403.321C443.789 403.213 443.647 403.069 443.541 402.9C443.436 402.731 443.369 402.541 443.346 402.343C442.708 397.036 441.886 391.08 441.611 390.296C441.49 389.96 441.507 389.59 441.658 389.266C441.809 388.943 442.081 388.691 442.416 388.567C442.58 388.505 442.754 388.475 442.929 388.48C443.104 388.485 443.276 388.525 443.436 388.596C443.596 388.668 443.739 388.771 443.859 388.898C443.979 389.026 444.073 389.176 444.135 389.34C444.562 390.453 445.394 396.841 445.832 400.397L456.548 396.944C456.889 396.837 457.257 396.87 457.574 397.034C457.89 397.198 458.129 397.48 458.238 397.82C458.347 398.159 458.318 398.528 458.156 398.846C457.994 399.164 457.714 399.405 457.375 399.516L445.102 403.472C444.967 403.515 444.827 403.537 444.686 403.537V403.537Z" fill="black"/>
<path d="M522.892 588.998C522.642 588.996 522.397 588.925 522.185 588.793C521.972 588.66 521.801 588.472 521.689 588.248C521.577 588.025 521.529 587.774 521.551 587.525C521.572 587.276 521.662 587.038 521.811 586.836L533.068 571.753C533.283 571.466 533.603 571.277 533.958 571.226C534.313 571.175 534.673 571.268 534.96 571.483C535.246 571.698 535.436 572.018 535.486 572.372C535.537 572.727 535.445 573.088 535.23 573.374L523.973 588.452C523.848 588.621 523.685 588.759 523.497 588.854C523.309 588.948 523.102 588.998 522.892 588.998V588.998Z" fill="black"/>
</svg>
