<svg width="1207" height="729" fill="none" xmlns="http://www.w3.org/2000/svg">
  <path d="M721 453H554a14.693 14.693 0 01-9.607-3.205 1 1 0 011.214-1.59A12.679 12.679 0 00554 451h167a15.015 15.015 0 0015-15V334a15.015 15.015 0 00-15-15H554a15.015 15.015 0 00-15 15v60a.997.997 0 01-1 1 .997.997 0 01-1-1v-60a17.019 17.019 0 0117-17h167a17.019 17.019 0 0117 17v102a17.019 17.019 0 01-17 17z" fill="#3F3D56"/>
  <path d="M943 511H501a.997.997 0 01-1-1 .997.997 0 011-1h442a15.015 15.015 0 0015-15V184a15.015 15.015 0 00-15-15H473a15.015 15.015 0 00-15 15v202a.997.997 0 01-1 1 .997.997 0 01-1-1V184a17.019 17.019 0 0117-17h470a17.019 17.019 0 0117 17v310a17.019 17.019 0 01-17 17z" fill="#3F3D56"/>
  <path d="M959.673 199.575h-503v2h503v-2zm-484-7.04a6 6 0 100-12 6 6 0 000 12zm17.25 0a6 6 0 100-12 6 6 0 000 12zm17.25 0a6 6 0 100-12 6 6 0 000 12zM861.5 268h-310a15.5 15.5 0 110-31h310a15.5 15.5 0 110 31zm-310-29a13.5 13.5 0 100 27h310a13.5 13.5 0 100-27h-310z" fill="#3F3D56"/>
  <path d="M859.5 347h-60a15.5 15.5 0 110-31h60a15.5 15.5 0 110 31zm0 52h-60a15.5 15.5 0 110-31h60a15.5 15.5 0 110 31zm0 52h-60a15.5 15.5 0 110-31h60a15.5 15.5 0 110 31z" fill="#FDB813"/>
  <path opacity=".5" d="M498.701 490.187a5.542 5.542 0 01-3.268-1.066l-3.145-2.281v-46.943l.53.032c.474.028.942.114 1.394.258a5.444 5.444 0 011.574.797l22.649 16.441a5.606 5.606 0 011.48 1.6 5.573 5.573 0 01.669 4.224 5.58 5.58 0 01-.912 1.979l-16.436 22.649a5.534 5.534 0 01-3.64 2.238 5.829 5.829 0 01-.895.072z" fill="#E6E6E6"/>
  <path d="M391.76 512.304c37.872 0 68.573-30.701 68.573-68.573 0-37.872-30.701-68.573-68.573-68.573-37.871 0-68.572 30.701-68.572 68.573 0 37.872 30.701 68.573 68.572 68.573z" fill="#FDB813"/>
  <path d="M307.638 728.511l-80.548-79.366-19.975-19.683-59.62-58.744-73.906 78.896L0 728.181" fill="#F2F2F2"/>
  <path d="M704.31 728.99h-544.6l67.38-73.04 124.49-146.02 8.39-9.84L472.58 368l77.92 123.41 2.04 3.23 99.13 156.98 52.64 77.37z" fill="#F2F2F2"/>
  <path d="M974 728.511l-134.517-158.72-65.944-77.805-63.735 79.913-58.134 72.915-66.49 83.367" fill="#F2F2F2"/>
  <path opacity=".1" d="M207.115 629.462l-35.493 23.797-41.905-16.508-56.128 12.863 73.906-78.896 59.62 58.744zM550.5 491.41l-11.89 20.89-26.66-27.93-29.21 27.93-16.51-31.74-26.67 31.74-7.62-20.31-17.77 20.31-31.75-20.31-22.45 8.1L472.58 368l77.92 123.41zm288.983 78.381l-32.928 40.292-26.667-31.746-40.635 33.016-29.449-39.454 63.735-79.913 65.944 77.805z" fill="#000"/>
  <path d="M138 415H17a17.02 17.02 0 01-17-17V216.168a17.019 17.019 0 0117-17h121a17.023 17.023 0 0117 17V398a17.019 17.019 0 01-17 17zM17 201.168a15.02 15.02 0 00-15 15V398a15.017 15.017 0 0015 15h121a15.015 15.015 0 0015-15V216.168a15.015 15.015 0 00-15-15H17z" fill="#3F3D56"/>
  <path d="M119.5 286.584h-84a8.505 8.505 0 01-8.5-8.5v-40a8.508 8.508 0 018.5-8.5h84a8.511 8.511 0 018.5 8.5v40a8.506 8.506 0 01-8.5 8.5z" fill="#FDB813"/>
  <path d="M113.5 324.084h-72a7.997 7.997 0 01-8-8 7.999 7.999 0 018-8h72a7.997 7.997 0 018 8 8 8 0 01-8 8zm0 30h-72a7.997 7.997 0 01-8-8 7.999 7.999 0 018-8h72a7.997 7.997 0 018 8 8 8 0 01-8 8zm0 30h-72a7.997 7.997 0 01-8-8 7.999 7.999 0 018-8h72a7.997 7.997 0 018 8 8 8 0 01-8 8z" fill="#CCC"/>
  <path d="M145 227c12.703 0 23-10.297 23-23s-10.297-23-23-23-23 10.297-23 23 10.297 23 23 23z" fill="#FDB813"/>
  <path d="M142.72 212.774a2.382 2.382 0 01-1.435-.477l-.026-.019-5.405-4.138a2.398 2.398 0 01-.452-3.372 2.397 2.397 0 012.532-.858c.305.082.591.224.841.417l3.501 2.685 8.274-10.79a2.41 2.41 0 011.591-.92 2.417 2.417 0 011.776.475l-.052.07.053-.068c.505.387.835.96.918 1.591a2.399 2.399 0 01-.474 1.775l-9.731 12.692a2.41 2.41 0 01-1.911.937z" fill="#fff"/>
  <path d="M1172 632h-121a17.03 17.03 0 01-12.02-4.985A17.065 17.065 0 011034 615V433.168c.01-4.507 1.8-8.828 4.98-12.015a17.035 17.035 0 0112.02-4.985h121c4.51.006 8.83 1.798 12.02 4.985a17.065 17.065 0 014.98 12.015V615a17.065 17.065 0 01-4.98 12.015A17.03 17.03 0 011172 632zm-121-213.832a15.007 15.007 0 00-10.6 4.399 15.008 15.008 0 00-4.4 10.601V615c0 3.977 1.59 7.79 4.4 10.602A15.002 15.002 0 001051 630h121a15.002 15.002 0 0010.6-4.398A15.009 15.009 0 001187 615V433.168c0-3.976-1.59-7.789-4.4-10.601a15.007 15.007 0 00-10.6-4.399h-121z" fill="#3F3D56"/>
  <path d="M1147.5 461.084h-72a7.998 7.998 0 01-8-8 7.997 7.997 0 018-8h72a7.997 7.997 0 018 8 7.998 7.998 0 01-8 8zm0 30h-72a7.998 7.998 0 01-8-8 7.997 7.997 0 018-8h72a7.997 7.997 0 018 8 7.998 7.998 0 01-8 8z" fill="#CCC"/>
  <path d="M1153.5 567.584h-84a8.533 8.533 0 01-6.01-2.493 8.51 8.51 0 01-2.49-6.007v-40c0-2.254.9-4.414 2.49-6.007a8.533 8.533 0 016.01-2.493h84c2.25.003 4.41.899 6.01 2.493a8.508 8.508 0 012.49 6.007v40a8.51 8.51 0 01-2.49 6.007 8.533 8.533 0 01-6.01 2.493z" fill="#E6E6E6"/>
  <path d="M1147.5 603.084h-72a7.998 7.998 0 01-8-8 7.997 7.997 0 018-8h72a7.997 7.997 0 018 8 7.998 7.998 0 01-8 8z" fill="#CCC"/>
  <path d="M1184 445c12.7 0 23-10.297 23-23s-10.3-23-23-23-23 10.297-23 23 10.3 23 23 23z" fill="#3F3D56"/>
  <path d="M1181.72 430.774a2.403 2.403 0 01-1.44-.477l-.02-.019-5.41-4.138a2.445 2.445 0 01-.62-.704 2.339 2.339 0 01-.3-.888c-.04-.314-.02-.632.06-.938.08-.305.22-.591.41-.842.19-.251.43-.462.71-.62.27-.158.57-.26.89-.301.31-.041.63-.019.93.063.31.082.59.224.84.417l3.51 2.685 8.27-10.79c.19-.25.43-.46.7-.618.28-.158.58-.26.89-.302.31-.041.63-.02.94.061.3.082.59.223.84.414l-.06.07.06-.068c.5.387.83.96.92 1.591.08.631-.09 1.27-.48 1.775l-9.73 12.692a2.31 2.31 0 01-.85.692c-.33.162-.69.246-1.06.245z" fill="#fff"/>
  <path d="M374 167H253a17.019 17.019 0 01-17-17V37.168a17.02 17.02 0 0117-17h121a17.019 17.019 0 0117 17V150a17.019 17.019 0 01-17 17zM253 22.168a15.018 15.018 0 00-15 15V150a15.015 15.015 0 0015 15h121a15.015 15.015 0 0015-15V37.168a15.015 15.015 0 00-15-15H253z" fill="#3F3D56"/>
  <path d="M349.5 131.584h-72a7.996 7.996 0 01-8-8 8 8 0 018-8h72a7.997 7.997 0 018 8 8 8 0 01-8 8zm0-30h-72a7.997 7.997 0 01-8-8 8.001 8.001 0 018-8h72a8 8 0 110 16zm0-29.999h-72a8 8 0 110-16h72a8 8 0 110 16z" fill="#CCC"/>
  <path d="M387 46c12.703 0 23-10.297 23-23S399.703 0 387 0s-23 10.297-23 23 10.297 23 23 23z" fill="#3F3D56"/>
</svg>
