<svg width="512" height="512" viewBox="0 0 512 512" fill="none" xmlns="http://www.w3.org/2000/svg">
<path d="M497 337H175V15C175 6.716 168.284 0 160 0H15C6.716 0 0 6.716 0 15V497C0 505.284 6.716 512 15 512H497C505.284 512 512 505.284 512 497V352C512 343.716 505.284 337 497 337ZM30 30H145V73H112C103.716 73 97 79.716 97 88C97 96.284 103.716 103 112 103H145V137H128C119.716 137 113 143.716 113 152C113 160.284 119.716 167 128 167H145V201H112C103.716 201 97 207.716 97 216C97 224.284 103.716 231 112 231H145V265H128C119.716 265 113 271.716 113 280C113 288.284 119.716 295 128 295H145V337H30V30ZM30 367H145V482H30V367ZM482 482H175V367H217V400C217 408.284 223.716 415 232 415C240.284 415 247 408.284 247 400V367H281V384C281 392.284 287.716 399 296 399C304.284 399 311 392.284 311 384V367H345V400C345 408.284 351.716 415 360 415C368.284 415 375 408.284 375 400V367H409V384C409 392.284 415.716 399 424 399C432.284 399 439 392.284 439 384V367H482V482Z" fill="#9052FF"/>
<path d="M102.71 421.07C100.84 412.144 91.999 407.156 83.64 409.65C75.024 412.458 71.445 420.936 73.65 428.36C76.493 437.055 85.01 440.542 92.36 438.35C100.279 435.768 104.07 428.336 102.71 421.07V421.07Z" fill="#9052FF"/>
</svg>
